<?xml version="1.0" encoding="UTF-8" standalone="no"?>
<!--
*************Map created by Simplemaps.com********************		
*************Attribution is highly appreciated!***************
*************http://simplemaps.com****************************

The MIT License (MIT)

Copyright (c) 2015 Pareto Softare, LLC DBA Simplemaps.com

Permission is hereby granted, free of charge, to any person obtaining a copy
of this software and associated documentation files (the "Software"), to deal
in the Software without restriction, including without limitation the rights
to use, copy, modify, merge, publish, distribute, sublicense, and/or sell
copies of the Software, and to permit persons to whom the Software is
furnished to do so, subject to the following conditions:

The above copyright notice and this permission notice shall be included in
all copies or substantial portions of the Software.

THE SOFTWARE IS PROVIDED "AS IS", WITHOUT WARRANTY OF ANY KIND, EXPRESS OR
IMPLIED, INCLUDING BUT NOT LIMITED TO THE WARRANTIES OF MERCHANTABILITY,
FITNESS FOR A PARTICULAR PURPOSE AND NONINFRINGEMENT. IN NO EVENT SHALL THE
AUTHORS OR COPYRIGHT HOLDERS BE LIABLE FOR ANY CLAIM, DAMAGES OR OTHER
LIABILITY, WHETHER IN AN ACTION OF CONTRACT, TORT OR OTHERWISE, ARISING FROM,
OUT OF OR IN CONNECTION WITH THE SOFTWARE OR THE USE OR OTHER DEALINGS IN
THE SOFTWARE.

-->

<svg xmlns:dc="http://purl.org/dc/elements/1.1/" xmlns:cc="http://creativecommons.org/ns#" xmlns:rdf="http://www.w3.org/1999/02/22-rdf-syntax-ns#" xmlns:svg="http://www.w3.org/2000/svg" xmlns="http://www.w3.org/2000/svg" xmlns:sodipodi="http://sodipodi.sourceforge.net/DTD/sodipodi-0.dtd" xmlns:inkscape="http://www.inkscape.org/namespaces/inkscape" enable_background="new 0 0 2000 1001" height="1001px" pretty_print="False" style="stroke-linejoin: round; stroke:#000; fill: none;" version="1.1" viewBox="0 0 2000 1001" width="2000px" id="svg2" inkscape:version="0.48.4 r9939" sodipodi:docname="world.svg">
                <sodipodi:namedview pagecolor="#ffffff" bordercolor="#666666" borderopacity="1" objecttolerance="10" gridtolerance="10" guidetolerance="10" inkscape:pageopacity="0" inkscape:pageshadow="2" inkscape:window-width="1920" inkscape:window-height="1137" id="namedview231" showgrid="false" inkscape:zoom="1.144" inkscape:cx="593.00732" inkscape:cy="460.46398" inkscape:window-x="1192" inkscape:window-y="118" inkscape:window-maximized="1" inkscape:current-layer="svg2"></sodipodi:namedview>
                <defs id="defs4">
                  <style type="text/css" id="style6">path { fill-rule: evenodd; }</style>
                </defs>
                <metadata id="metadata8">
                  <views id="views10">
                    <view h="1001" padding="0" w="2000" id="view12">
                      <proj flip="auto" id="robinson" lon0="100.0"></proj>
                      <bbox h="2233.1" w="5271.17" x="-2635.59" y="-1308.06" id="bbox15"></bbox>
                    </view>
                  </views>
                  <rdf:rdf>
                    <cc:work rdf:about="">
                      <dc:format>image/svg+xml</dc:format>
                      <dc:type rdf:resource="http://purl.org/dc/dcmitype/StillImage"></dc:type>
                      <dc:title></dc:title>
                    </cc:work>
                  </rdf:rdf>
                </metadata>
                <path inkscape:connector-curvature="0" id="AO" data-name="Angola" data-id="AO" d="m 1068.3,609.6 -16.6,-0.1 -1.9,0.7 -1.7,-0.1 -2.3,0.9 -0.5,1.2 2.8,4 1.1,4.3 1.6,6.1 -1.7,2.6 -0.3,1.3 1.3,3.8 1.5,3.9 1.6,2.2 0.3,3.6 -0.7,4.8 -1.8,2.8 -3.3,4.2 -1.3,2.6 -1.9,5.7 -0.3,2.7 -2,5.9 -0.9,5.5 0.5,4 2.7,-1.2 3.3,-1 3.6,0.1 3.2,2.9 0.9,-0.4 22.5,-0.3 3.7,3 13.4,0.9 10.3,-2.5 -3.5,-4 -3.6,-5.2 0.8,-20.3 11.6,0.1 -0.5,-2.2 0.9,-2.4 -0.9,-3 0.7,-3 -0.5,-2 -2.6,-0.4 -3.5,1 -2.4,-0.2 -1.4,0.6 0.5,-7.6 -1.9,-2.3 -0.3,-4 0.9,-3.8 -1.2,-2.4 0,-4 -6.8,0 0.5,-2.3 -2.9,0 -0.3,1.1 -3.4,0.3 -1.5,3.7 -0.9,1.6 -3,-0.9 -1.9,0.9 -3.7,0.5 -2.1,-3.3 -1.3,-2.1 -1.6,-3.8 -1.3,-4.7 z m -21.8,-1.3 0.2,-2.7 0.9,-1.7 2,-1.3 -2,-2.2 -1.8,1.1 -2.2,2.7 1.4,4.8 1.5,-0.7 z" style="fill:currentColor;fill-rule:evenodd"></path>
                <path inkscape:connector-curvature="0" id="BI" data-name="Burundi" data-id="BI" d="m 1148.2,590 -0.3,-2.5 0,0 -3,-0.4 -1.7,3.6 -3.5,-0.5 1.4,2.9 0.1,1.1 2,6.1 -0.1,0.3 0.6,-0.1 2.1,-2.3 2.2,-3.3 1.4,-1.4 0,-2 -1.2,-1.5 z" style="fill: currentcolor; fill-rule: evenodd;"></path>
                <path inkscape:connector-curvature="0" id="BJ" data-name="Benin" data-id="BJ" d="m 996.9,498 -4.3,-3.7 -2,0 -1.9,1.9 -1.2,1.9 -2.7,0.6 -1.2,2.8 -1.9,0.7 -0.7,3.3 1.7,1.9 2,2.3 0.2,3.1 1.1,1.3 -0.2,14.6 1.4,4.4 4.6,-0.8 0.3,-10.2 -0.1,-4.1 1,-4 1.7,-1.9 2.7,-4 -0.6,-1.7 1.1,-2.5 -1.2,-3.8 0.2,-2.1 z" style="fill: currentcolor; fill-rule: evenodd;"></path>
                <path inkscape:connector-curvature="0" id="BF" data-name="Burkina Faso" data-id="BF" d="m 978.8,477.2 -3.6,0 -1.4,-1.2 -3,0.9 -5.2,2.6 -1.1,2 -4.3,2.9 -0.8,1.6 -2.3,1.3 -2.7,-0.9 -1.6,1.6 -0.8,4.4 -4.5,5.2 0.2,2.2 -1.6,2.7 0.4,3.7 2.5,1.4 1,2.1 2.5,1.3 1.9,-1.6 2.7,-0.2 3.8,1.6 -0.8,-4.8 0.2,-3.6 9.7,-0.3 2.4,0.5 1.8,-1 2.6,0.5 4.9,0.1 1.9,-0.7 1.2,-2.8 2.7,-0.6 1.2,-1.9 0.1,-4.4 -6.4,-1.4 -0.2,-3.1 -3.1,-4.1 -0.8,-2.9 0.5,-3.1 z" style="fill: currentcolor; fill-rule: evenodd;"></path>
                <path inkscape:connector-curvature="0" id="BW" data-name="Botswana" data-id="BW" d="m 1116.7,685 -1,-0.5 -3.2,1.5 -1.6,0 -3.7,2.5 -2,-2.6 -8.6,2.2 -4.1,0.2 -0.9,22.7 -5.4,0.2 -0.6,18.5 1.4,1 3,6.1 -0.7,3.8 1.1,2.3 4,-0.7 2.8,-2.8 2.7,-1.9 1.5,-3.1 2.7,-1.5 2.3,0.8 2.5,1.8 4.4,0.3 3.6,-1.5 0.6,-2 1.2,-3 3,-0.5 1.7,-2.4 2,-4.3 5.2,-4.7 8,-4.7 -3.4,-2.9 -4.2,-0.9 -1.5,-4.1 0.1,-2.2 -2.3,-0.7 -6,-7 -1.6,-3.7 -1.1,-1.1 -1.9,-5.1 z" style="fill: currentcolor; fill-rule: evenodd;"></path>
                <path inkscape:connector-curvature="0" id="CF" data-name="Central African Rep." data-id="CF" d="m 1110.5,517.3 -0.5,-0.3 -2,-1.8 -0.3,-2 0.8,-2.6 0,-2.6 -3.3,-4 -0.7,-2.7 -3.5,1.1 -2.8,2.5 -4,7 -5.2,2.9 -5.4,-0.4 -1.6,0.6 0.6,2.3 -2.9,2.2 -2.3,2.5 -7.1,2.4 -1.4,-1.4 -0.9,-0.2 -1,1.7 -4.7,0.4 -2.7,6.5 -1.4,1.1 -0.4,5 0.6,2.7 -0.4,1.9 2.6,3.3 0.5,2.3 2.1,3.2 2.6,2.1 0.3,2.9 0.6,1.8 2.9,-5.9 3.3,-3.4 3.8,1.1 3.6,0.4 0.5,-4.5 2.2,-3.2 3,-2 4.6,2.1 3.6,2.4 4.1,0.6 4.2,1.2 1.6,-3.8 0.8,-0.5 2.6,0.6 6.2,-3.1 2.2,1.3 1.8,-0.2 0.9,-1.5 2,-0.6 4.3,0.7 3.6,0.1 1.8,-0.6 -0.9,-2.1 -4.2,-2.5 -1.5,-3.8 -2.4,-2.7 -3.8,-3.4 -0.1,-2 -3.1,-2.6 -3.8,-2.5 z" style="fill: currentcolor; fill-rule: evenodd;"></path>
                <path inkscape:connector-curvature="0" id="CI" data-name="Côte d'Ivoire" data-id="CI" d="m 946.5,506.2 -2.3,0.9 -1.3,0.8 -0.9,-2.7 -1.6,0.7 -1,-0.1 -1,1.9 -4.3,-0.1 -1.6,-1 -0.7,0.6 -1.1,0.5 -0.5,2.2 1.3,2.6 1.3,5.1 -2,0.8 -0.6,0.9 0.4,1.2 -0.3,2.8 -0.9,0 -0.3,1.8 0.6,3.1 -1.2,2.8 1.6,1.8 1.8,0.4 2.3,2.7 0.2,2.5 -0.5,0.8 -0.5,5.2 1.1,0.2 5.6,-2.4 3.9,-1.8 6.6,-1.1 3.6,-0.1 3.9,1.3 2.6,-0.1 0.2,-2.5 -2.4,-5.5 1.5,-7.2 2.3,-5.3 -1.4,-9.1 -3.8,-1.6 -2.7,0.2 -1.9,1.6 -2.5,-1.3 -1,-2.1 -2.5,-1.4 z" style="fill: currentcolor; fill-rule: evenodd;"></path>
                <path inkscape:connector-curvature="0" id="CM" data-name="Cameroon" data-id="CM" d="m 1060.1,502.9 0.2,-4.3 -0.5,-4.2 -2.2,-4.1 -1.6,0.4 -0.2,2 2.3,2.6 -0.6,1.1 -0.3,2.1 -4.6,5 -1.5,4 -0.7,3.3 -1.2,1.4 -1.1,4.5 -3,2.6 -0.8,3.2 -1.2,2.6 -0.5,2.6 -3.9,2.2 -3.2,-2.6 -2.1,0.1 -3.3,3.7 -1.6,0.1 -2.7,6.1 -1.4,4.5 0,1.8 1.4,0.9 1.1,2.8 2.6,1.1 2.2,4.2 -0.8,5 9.2,0.2 2.6,-0.4 3.4,0.8 3.4,-0.8 0.7,0.3 7.1,0.3 4.5,1.7 4.5,1.5 0.4,-3.5 -0.6,-1.8 -0.3,-2.9 -2.6,-2.1 -2.1,-3.2 -0.5,-2.3 -2.6,-3.3 0.4,-1.9 -0.6,-2.7 0.4,-5 1.4,-1.1 2.7,-6.5 0.9,-1.7 -1.8,-4.4 -0.8,-2.6 -2.5,-1.1 -3.3,-3.7 1.2,-3 2.5,0.6 1.6,-0.4 3.1,0.1 -3.1,-5.8 z" style="fill: currentcolor; fill-rule: evenodd;"></path>
                <path inkscape:connector-curvature="0" id="CD" data-name="Dem. Rep. Congo" data-id="CD" d="m 1124.9,539.4 -4.3,-0.7 -2,0.6 -0.9,1.5 -1.8,0.2 -2.2,-1.3 -6.2,3.1 -2.6,-0.6 -0.8,0.5 -1.6,3.8 -4.2,-1.2 -4.1,-0.6 -3.6,-2.4 -4.6,-2.1 -3,2 -2.2,3.2 -0.5,4.5 -0.3,3.8 -1.6,3.4 -1.1,4 -0.7,5.6 0.3,3.6 -0.9,2.2 -0.2,2.4 -0.6,2 -3.7,3.1 -2.6,3.2 -2.5,6.2 0.2,5.3 -1.4,2 -3.3,3.1 -3.4,4 -2,-1.1 -0.4,-1.8 -3.1,-0.1 -1.9,2.4 -1.5,-0.6 -2,1.3 -0.9,1.7 -0.2,2.7 -1.5,0.7 0.8,2 2.3,-0.9 1.7,0.1 1.9,-0.7 16.6,0.1 1.3,4.7 1.6,3.8 1.3,2.1 2.1,3.3 3.7,-0.5 1.9,-0.9 3,0.9 0.9,-1.6 1.5,-3.7 3.4,-0.3 0.3,-1.1 2.9,0 -0.5,2.3 6.8,0 0,4 1.2,2.4 -0.9,3.8 0.3,4 1.9,2.3 -0.5,7.6 1.4,-0.6 2.4,0.2 3.5,-1 2.6,0.4 1.9,0.1 0.3,2 2.6,-0.1 3.5,0.6 1.8,2.8 4.5,0.9 3.4,-2 1.2,3.4 4.3,0.8 2,2.8 2.1,3.5 4.3,0 -0.3,-6.9 -1.5,1.2 -3.9,-2.5 -1.4,-1.1 0.8,-6.4 1.2,-7.5 -1.2,-2.8 1.6,-4.1 1.6,-0.7 7.5,-1.1 1,0.3 0.2,-1.1 -1.5,-1.7 -0.7,-3.5 -3.4,-3.5 -1.8,-4.5 1,-2.7 -1.5,-3.6 1.1,-10.2 0.1,0.1 -0.1,-1.1 -1.4,-2.9 0.6,-3.5 0.8,-0.4 0.2,-3.8 1.6,-1.8 0.1,-4.8 1.3,-2.4 0.3,-5.1 1.2,-3 2.1,-3.3 2.2,-1.7 1.8,-2.3 -2.3,-0.8 0.3,-7.5 0,0 -5,-4.2 -1.4,-2.7 -3.1,1.3 -2.6,-0.4 -1.5,1.1 -2.5,-0.8 -3.5,-5.2 -1.8,0.6 -3.6,-0.1 z" style="fill: currentcolor; fill-rule: evenodd;"></path>
                <path inkscape:connector-curvature="0" id="CG" data-name="Congo" data-id="CG" d="m 1080.3,549.9 -3.6,-0.4 -3.8,-1.1 -3.3,3.4 -2.9,5.9 -0.4,3.5 -4.5,-1.5 -4.5,-1.7 -7.1,-0.3 -0.4,2.8 1.5,3.3 4.2,-0.5 1.4,1.2 -2.4,7.4 2.7,3.8 0.6,4.9 -0.8,4.3 -1.7,3 -4.9,-0.3 -3,-3 -0.5,2.8 -3.8,0.8 -1.9,1.6 2.1,4.2 -4.3,3.5 4.6,6.7 2.2,-2.7 1.8,-1.1 2,2.2 1.5,0.6 1.9,-2.4 3.1,0.1 0.4,1.8 2,1.1 3.4,-4 3.3,-3.1 1.4,-2 -0.2,-5.3 2.5,-6.2 2.6,-3.2 3.7,-3.1 0.6,-2 0.2,-2.4 0.9,-2.2 -0.3,-3.6 0.7,-5.6 1.1,-4 1.6,-3.4 0.3,-3.8 z" style="fill: currentcolor; fill-rule: evenodd;"></path>
                <path inkscape:connector-curvature="0" id="DJ" data-name="Djibouti" data-id="DJ" d="m 1217.8,499.2 -2.5,-1.7 3.1,-1.5 0.1,-2.7 -1.4,-1.9 -1.6,1.5 -2.4,-0.5 -1.9,2.8 -1.8,3 0.5,1.7 0.2,2 3.1,0.1 1.3,-0.5 1.3,1.1 2,-3.4 z" style="fill: currentcolor; fill-rule: evenodd;"></path>
                <path inkscape:connector-curvature="0" id="DZ" data-name="Algeria" data-id="DZ" d="m 1021,336.9 -3.6,0.4 -2.2,-1.5 -5.6,0 -4.9,2.6 -2.7,-1 -8.7,0.5 -8.9,1.2 -5,2 -3.4,2.6 -5.7,1.2 -5.1,3.5 2,4.1 0.3,3.9 1.8,6.7 1.4,1.4 -1,2.5 -7,1 -2.5,2.4 -3.1,0.5 -0.3,4.7 -6.3,2.5 -2.1,3.2 -4.4,1.7 -5.4,1 -8.9,4.7 -0.1,7.5 0,0.4 -0.1,1.2 20.3,15.5 18.4,13.9 18.6,13.8 1.3,3 3.4,1.8 2.6,1.1 0.1,4 6.1,-0.6 7.8,-2.8 15.8,-12.5 18.6,-12.2 -2.5,-4 -4.3,-2.9 -2.6,1.2 -2,-3.6 -0.2,-2.7 -3.4,-4.7 2.1,-2.6 -0.5,-4 0.6,-3.5 -0.5,-2.9 0.9,-5.2 -0.4,-3 -1.9,-5.6 -2.6,-11.3 -3.4,-2.6 0,-1.5 -4.5,-3.8 -0.6,-4.8 3.2,-3.6 1.1,-5.3 -1,-6.2 1,-3.3 z" style="fill: currentcolor; fill-rule: evenodd;"></path>
                <path inkscape:connector-curvature="0" id="EG" data-name="Egypt" data-id="EG" d="m 1129.7,374.8 -5.5,-1.9 -5.3,-1.7 -7.1,0.2 -1.8,3 1.1,2.7 -1.2,3.9 2,5.1 1.3,22.7 1,23.4 22.1,0 21.4,0 21.8,0 -1,-1.3 -6.8,-5.7 -0.4,-4.2 1,-1.1 -5.3,-7 -2,-3.6 -2.3,-3.5 -4.8,-9.9 -3.9,-6.4 -2.8,-6.7 0.5,-0.6 4.6,9.1 2.7,2.9 2,2 1.2,-1.1 1.2,-3.3 0.7,-4.8 1.3,-2.5 -0.7,-1.7 -3.9,-9.2 0,0 -2.5,1.6 -4.2,-0.4 -4.4,-1.5 -1.1,2.1 -1.7,-3.2 -3.9,-0.8 -4.7,0.6 -2.1,1.8 -3.9,2 -2.6,-1 z" style="fill: currentcolor; fill-rule: evenodd;"></path>
                <path inkscape:connector-curvature="0" id="ER" data-name="Eritrea" data-id="ER" d="m 1198.1,474 -3.2,-3.1 -1.8,-5.9 -3.7,-7.3 -2.6,3.6 -4,1 -1.6,2 -0.4,4.2 -1.9,9.4 0.7,2.5 6.5,1.3 1.5,-4.7 3.5,2.9 3.2,-1.5 1.4,1.3 3.9,0.1 4.9,2.5 1.6,2.2 2.5,2.1 2.5,3.7 2,2.1 2.4,0.5 1.6,-1.5 -2.8,-1.9 -1.9,-2.2 -3.2,-3.7 -3.2,-3.6 -7.9,-6 z" style="fill: currentcolor; fill-rule: evenodd;"></path>
                <path inkscape:connector-curvature="0" id="ET" data-name="Ethiopia" data-id="ET" d="m 1187.6,477 -1.5,4.7 -6.5,-1.3 -0.7,5.5 -2.1,6.2 -3.2,3.2 -2.3,4.8 -0.5,2.6 -2.6,1.8 -1.4,6.7 0,0.7 0.2,5 -0.8,2 -3,0.1 -1.8,3.6 3.4,0.5 2.9,3.1 1,2.5 2.6,1.5 3.5,6.9 2.9,1.1 0,3.6 2,2.1 3.9,0 7.2,5.4 1.8,0 1.3,-0.1 1.2,0.7 3.8,0.5 1.6,-2.7 5.1,-2.6 2.3,2.1 3.8,0 1.5,-2 3.6,-0.1 4.9,-4.5 7.4,-0.3 15.4,-19.1 -4.8,0.1 -18.5,-7.6 -2.2,-2.2 -2.1,-3.1 -2.2,-3.5 1.1,-2.3 -1.3,-1.1 -1.3,0.5 -3.1,-0.1 -0.2,-2 -0.5,-1.7 1.8,-3 1.9,-2.8 -2,-2.1 -2.5,-3.7 -2.5,-2.1 -1.6,-2.2 -4.9,-2.5 -3.9,-0.1 -1.4,-1.3 -3.2,1.5 -3.5,-2.9 z" style="fill: currentcolor; fill-rule: evenodd;"></path>
                <path inkscape:connector-curvature="0" id="GA" data-name="Gabon" data-id="GA" d="m 1050.2,557.7 -0.7,-0.3 -3.4,0.8 -3.4,-0.8 -2.6,0.4 0,7.6 -8.2,0 -1.9,0.3 -1.1,4.8 -1.3,4.6 -1.3,2 -0.2,2.1 3.4,6.6 3.7,5.3 5.8,6.4 4.3,-3.5 -2.1,-4.2 1.9,-1.6 3.8,-0.8 0.5,-2.8 3,3 4.9,0.3 1.7,-3 0.8,-4.3 -0.6,-4.9 -2.7,-3.8 2.4,-7.4 -1.4,-1.2 -4.2,0.5 -1.5,-3.3 0.4,-2.8 z" style="fill: currentcolor; fill-rule: evenodd;"></path>
                <path inkscape:connector-curvature="0" id="GH" data-name="Ghana" data-id="GH" d="m 976.8,502.1 -2.6,-0.5 -1.8,1 -2.4,-0.5 -9.7,0.3 -0.2,3.6 0.8,4.8 1.4,9.1 -2.3,5.3 -1.5,7.2 2.4,5.5 -0.2,2.5 5,1.8 5,-1.9 3.2,-2.1 8.7,-3.8 -1.2,-2.2 -1.5,-4 -0.4,-3.2 1.2,-5.7 -1.4,-2.3 -0.6,-5.1 0.1,-4.6 -2.4,-3.3 0.4,-1.9 z" style="fill: currentcolor; fill-rule: evenodd;"></path>
                <path inkscape:connector-curvature="0" id="GN" data-name="Guinea" data-id="GN" d="m 912.4,493 -0.8,0.4 -3,-0.5 -0.4,0.7 -1.3,0.1 -4,-1.5 -2.7,-0.1 -0.1,2.1 -0.6,0.7 0.4,2.1 -0.8,0.9 -1.3,0 -1.4,1 -1.7,-0.1 -2.6,3.1 1.6,1.1 0.8,1.4 0.7,2.8 1.3,1.2 1.5,0.9 2.1,2.5 2.4,3.7 3,-2.8 0.7,-1.7 1,-1.4 1.5,-0.2 1.3,-1.2 4.5,0 1.5,2.3 1.2,2.7 -0.2,1.8 0.9,1.7 0,2.3 1.5,-0.3 1.2,-0.2 1.5,-0.7 2.3,3.9 -0.4,2.6 1.1,1.3 1.6,0.1 1.1,-2.6 1.6,0.2 0.9,0 0.3,-2.8 -0.4,-1.2 0.6,-0.9 2,-0.8 -1.3,-5.1 -1.3,-2.6 0.5,-2.2 1.1,-0.5 -1.7,-1.8 0.3,-1.9 -0.7,-0.7 -1.2,0.6 0.2,-2.1 1.2,-1.6 -2.3,-2.7 -0.6,-1.7 -1.3,-1.4 -1.1,-0.2 -1.3,0.9 -1.8,0.8 -1.6,1.4 -2.4,-0.5 -1.5,-1.6 -0.9,-0.2 -1.5,0.8 -0.9,0 -0.3,-2.3 z" style="fill: currentcolor; fill-rule: evenodd;"></path>
                <path inkscape:connector-curvature="0" id="GM" data-name="Gambia" data-id="GM" d="m 882.8,488.5 5,0.1 1.4,-0.9 1,0 2.1,-1.5 2.4,1.4 2.4,0.1 2.4,-1.5 -1.1,-1.8 -1.8,1.1 -1.8,-0.1 -2.1,-1.5 -1.8,0.1 -1.3,1.5 -6.1,0.2 -0.7,2.8 z" style="fill: currentcolor; fill-rule: evenodd;"></path>
                <path inkscape:connector-curvature="0" id="GW" data-name="Guinea-Bissau" data-id="GW" d="m 900.2,492.1 -10.3,-0.3 -1.5,0.7 -1.8,-0.2 -3,1.1 0.3,1.3 1.7,1.4 0,0.9 1.2,1.8 2.4,0.5 2.9,2.6 2.6,-3.1 1.7,0.1 1.4,-1 1.3,0 0.8,-0.9 -0.4,-2.1 0.6,-0.7 0.1,-2.1 z" style="fill: currentcolor; fill-rule: evenodd;"></path>
                <path inkscape:connector-curvature="0" id="GQ" data-name="Eq. Guinea" data-id="GQ" d="m 1040.1,557.8 -9.2,-0.2 -1.9,7.2 1,0.9 1.9,-0.3 8.2,0 0,-7.6 z" style="fill: currentcolor; fill-rule: evenodd;"></path>
                <path inkscape:connector-curvature="0" id="KE" data-name="Kenya" data-id="KE" d="m 1211.7,547.2 -3.8,0 -2.3,-2.1 -5.1,2.6 -1.6,2.7 -3.8,-0.5 -1.2,-0.7 -1.3,0.1 -1.8,0 -7.2,-5.4 -3.9,0 -2,-2.1 0,-3.6 -2.9,-1.1 -3.8,4.2 -3.4,3.8 2.7,4.4 0.7,3.2 2.6,7.3 -2.1,4.7 -2.7,4.2 -1.6,2.6 0,0.3 1.4,2.4 -0.4,4.7 20.2,13 0.4,3.7 8,6.3 2.2,-2.1 1.2,-4.2 1.8,-2.6 0.9,-4.5 2.1,-0.4 1.4,-2.7 4,-2.5 -3.3,-5.3 -0.2,-23.2 4.8,-7.2 z" style="fill: currentcolor; fill-rule: evenodd;"></path>
                <path inkscape:connector-curvature="0" id="LR" data-name="Liberia" data-id="LR" d="m 929.4,523.3 -1.6,-0.2 -1.1,2.6 -1.6,-0.1 -1.1,-1.3 0.4,-2.6 -2.3,-3.9 -1.5,0.7 -1.2,0.2 -2.6,3 -2.6,3.4 -0.3,1.9 -1.3,2 3.7,4.1 4.8,3.5 5.1,4.8 5.7,3.1 1.5,-0.1 0.5,-5.2 0.5,-0.8 -0.2,-2.5 -2.3,-2.7 -1.8,-0.4 -1.6,-1.8 1.2,-2.8 -0.6,-3.1 0.3,-1.8 z" style="fill: currentcolor; fill-rule: evenodd;"></path>
                <path inkscape:connector-curvature="0" id="LY" data-name="Libya" data-id="LY" d="m 1111.8,371.4 -1.5,-2.1 -5.4,-0.8 -1.8,-1.1 -2,0 -2,-2.8 -7.3,-1.3 -3.6,0.8 -3.7,3 -1.5,3.1 1.5,4.8 -2.4,3 -2.5,1.6 -5.9,-3.1 -7.7,-2.7 -4.9,-1.2 -2.8,-5.7 -7.2,-2.8 -4.5,-1.1 -2.2,0.6 -6.4,-2.2 -0.1,4.9 -2.6,1.8 -1.5,2 -3.7,2.5 0.7,2.6 -0.4,2.7 -2.6,1.4 1.9,5.6 0.4,3 -0.9,5.2 0.5,2.9 -0.6,3.5 0.5,4 -2.1,2.6 3.4,4.7 0.2,2.7 2,3.6 2.6,-1.2 4.3,2.9 2.5,4 8.8,2.8 3.1,3.5 3.9,-2.4 5.4,-3.5 22.3,12.2 22.4,12.2 0,-2.7 6.3,0 -0.5,-12.7 -1,-23.4 -1.3,-22.7 -2,-5.1 1.2,-3.9 -1.1,-2.7 1.8,-3 z" style="fill: currentcolor; fill-rule: evenodd;"></path>
                <path inkscape:connector-curvature="0" id="LS" data-name="Lesotho" data-id="LS" d="m 1128.1,766.5 1.1,-2 3.1,-1 1.1,-2.1 1.9,-3.1 -1.7,-1.9 -2.3,-2 -2.6,1.3 -3.1,2.5 -3.2,4 3.7,4.9 2,-0.6 z" style="fill: currentcolor; fill-rule: evenodd;"></path>
                <path inkscape:connector-curvature="0" id="MA" data-name="Morocco" data-id="MA" d="m 965.2,348.4 -2.3,-0.1 -5.5,-1.4 -5,0.4 -3.1,-2.7 -3.9,0 -1.8,3.9 -3.7,6.7 -4,2.6 -5.4,2.9 -3.5,4.3 -0.9,3.4 -2.1,5.4 1.1,7.9 -4.7,5.3 -2.7,1.7 -4.4,4.4 -5.1,0.7 -2.8,2.4 -0.1,0.1 -3.6,6.5 -3.7,2.3 -2.1,4 -0.2,3.3 -1.6,3.8 -1.9,1 -3.1,4 -2,4.5 0.3,2.2 -1.9,3.3 -2.2,1.7 -0.3,3 0.1,0 12.4,-0.5 0.7,-2.3 2.3,-2.9 2,-8.8 7.8,-6.8 2.8,-8.1 1.7,-0.4 1.9,-5 4.6,-0.7 1.9,0.9 2.5,0 1.8,-1.5 3.4,-0.2 -0.1,-3.4 0,0 0.8,0 0.1,-7.5 8.9,-4.7 5.4,-1 4.4,-1.7 2.1,-3.2 6.3,-2.5 0.3,-4.7 3.1,-0.5 2.5,-2.4 7,-1 1,-2.5 -1.4,-1.4 -1.8,-6.7 -0.3,-3.9 -2,-4.1 z" style="fill: currentcolor; fill-rule: evenodd;"></path>
                <path inkscape:connector-curvature="0" id="MG" data-name="Madagascar" data-id="MG" d="m 1255.7,658.4 -1.1,-4.2 -1.4,-2.7 -1.8,-2.7 -2,2.8 -0.3,3.8 -3.3,4.5 -2.3,-0.8 0.6,2.7 -1.8,3.2 -4.8,3.9 -3.4,3.7 -2.4,0 -2.2,1.2 -3.1,1.3 -2.8,0.2 -1,4.1 -2.2,3.5 0.1,5.9 0.8,4 1.1,3 -0.8,4.1 -2.9,4.8 -0.2,2.1 -2.6,1.1 -1.3,4.6 0.2,4.6 1.6,5 -0.1,5.7 1.2,3.3 4.2,2.3 3,1.7 5,-2.7 4.6,-1.5 3.1,-7.4 2.8,-8.9 4.3,-12 3.3,-8.8 2.7,-7.4 0.8,-5.4 1.6,-1.5 0.7,-2.7 -0.8,-4.7 1.2,-1.9 1.6,3.8 1.1,-1.9 0.8,-3.1 -1.3,-2.9 -0.5,-7.7 z" style="fill: currentcolor; fill-rule: evenodd;"></path>
                <path inkscape:connector-curvature="0" id="ML" data-name="Mali" data-id="ML" d="m 1000.3,450.3 -6.1,0.6 -0.1,-4 -2.6,-1.1 -3.4,-1.8 -1.3,-3 -18.6,-13.8 -18.4,-13.9 -8.4,0.1 2.4,27.4 2.4,27.5 1,0.8 -1.3,4.4 -22.3,0.1 -0.9,1.4 -2.1,-0.4 -3.2,1.3 -3.8,-1.8 -1.8,0.2 -1,3.7 -1.9,1.2 0.2,3.9 1.1,3.7 2.1,1.8 0.4,2.4 -0.3,2 0.3,2.3 0.9,0 1.5,-0.8 0.9,0.2 1.5,1.6 2.4,0.5 1.6,-1.4 1.8,-0.8 1.3,-0.9 1.1,0.2 1.3,1.4 0.6,1.7 2.3,2.7 -1.2,1.6 -0.2,2.1 1.2,-0.6 0.7,0.7 -0.3,1.9 1.7,1.8 0.7,-0.6 1.6,1 4.3,0.1 1,-1.9 1,0.1 1.6,-0.7 0.9,2.7 1.3,-0.8 2.3,-0.9 -0.4,-3.7 1.6,-2.7 -0.2,-2.2 4.5,-5.2 0.8,-4.4 1.6,-1.6 2.7,0.9 2.3,-1.3 0.8,-1.6 4.3,-2.9 1.1,-2 5.2,-2.6 3,-0.9 1.4,1.2 3.6,0 3.6,-0.3 2,-2.2 7.6,-0.6 4.9,-1 0.5,-3.9 3,-4.3 -0.1,-14.6 z" style="fill: currentcolor; fill-rule: evenodd;"></path>
                <path inkscape:connector-curvature="0" id="MZ" data-name="Mozambique" data-id="MZ" d="m 1203,640.7 -0.8,-2.9 0,0 0,0 -4.6,3.7 -6.2,2.5 -3.3,-0.1 -2.1,1.9 -3.9,0.1 -1.4,0.8 -6.7,-1.8 -2.1,0.3 -1.6,6 0.7,7.3 0.3,0 1.9,2 2.2,4.6 0.1,8.2 -2.5,1.3 -1.9,4.5 -3.4,-4 -0.2,-4.5 1.3,-2.9 -0.3,-2.6 -2.1,-1.6 -1.6,0.6 -3,-3 -17.1,5.2 0.3,4.5 0.3,2.4 4.6,-0.1 2.6,1.3 1.1,1.6 2.6,0.5 2.8,2 -0.3,8.1 -1.3,4.4 -0.5,4.7 0.8,1.9 -0.8,3.7 -0.9,0.6 -1.6,4.6 -6.2,7.2 2.2,9 1.1,4.5 -1.4,7.1 0.4,2.3 0.6,2.9 0.3,2.8 4.1,0 0.7,-3.3 -1.4,-0.5 -0.3,-2.6 2.6,-2.4 6.8,-3.4 4.6,-2.2 2.5,-2.3 0.9,-2.6 -1.2,-1.1 1.1,-3 0.5,-6.2 -1,0.3 0,-1.9 -0.8,-3.7 -2.4,-4.8 0.7,-4.6 2.3,-1.4 4.1,-4.6 2.2,-1.1 6.7,-6.8 6.4,-3.1 5.2,-2.5 3.7,-3.9 2.4,-4.4 1.9,-4.6 -0.9,-3.1 0.2,-9.9 -0.4,-5.6 0.4,-6.3 z" style="fill: currentcolor; fill-rule: evenodd;"></path>
                <path inkscape:connector-curvature="0" id="MR" data-name="Mauritania" data-id="MR" d="m 949.8,413.3 -20.3,-15.5 -0.2,9.7 -17.9,-0.3 -0.2,16.3 -5.2,0.5 -1.4,3.3 0.9,9.2 -21.6,-0.1 -1.2,2.2 2.8,2.7 1.4,3 -0.7,3.2 0.6,3.2 0.5,6.3 -0.8,5.9 -1.7,3.2 0.4,3.4 2,-2 2.7,0.5 2.8,-1.4 3.1,0 2.6,1.8 3.7,1.7 3.2,4.7 3.6,4.4 1.9,-1.2 1,-3.7 1.8,-0.2 3.8,1.8 3.2,-1.3 2.1,0.4 0.9,-1.4 22.3,-0.1 1.3,-4.4 -1,-0.8 -2.4,-27.5 -2.4,-27.4 8.4,-0.1 z" style="fill: currentcolor; fill-rule: evenodd;"></path>
                <path inkscape:connector-curvature="0" id="MW" data-name="Malawi" data-id="MW" d="m 1169.2,661.5 0.1,-2.3 -1.2,-1.9 0.1,-2.8 -1.5,-4.7 1.7,-3.5 -0.1,-7.7 -1.9,-4.1 0.2,-0.7 0,0 -1.1,-1.7 -5.4,-1.2 2.6,2.8 1.2,5.4 -1,1.8 -1.2,5.1 0.9,5.3 -1.8,2.2 -1.9,5.9 2.9,1.7 3,3 1.6,-0.6 2.1,1.6 0.3,2.6 -1.3,2.9 0.2,4.5 3.4,4 1.9,-4.5 2.5,-1.3 -0.1,-8.2 -2.2,-4.6 -1.9,-2 -0.3,0 0,0.8 1.1,0.3 1,3.4 -0.2,0.8 -1.9,-2.5 -1,1.6 -0.8,-1.4 z" style="fill: currentcolor; fill-rule: evenodd;"></path>
                <path inkscape:connector-curvature="0" id="NA" data-name="Namibia" data-id="NA" d="m 1105.4,683.7 -10.3,2.5 -13.4,-0.9 -3.7,-3 -22.5,0.3 -0.9,0.4 -3.2,-2.9 -3.6,-0.1 -3.3,1 -2.7,1.2 0.2,4.9 4.4,6.2 1.1,4 2.8,7.7 2.7,5.2 2.1,2.6 0.6,3.5 0,7.6 1.6,9.8 1.2,4.6 1,6.2 1.9,4.7 3.9,4.8 2.7,-3.2 2.1,1.8 0.8,2.7 2.4,0.5 3.3,1.2 2.9,-0.5 5,-3.2 1.1,-23.6 0.6,-18.5 5.4,-0.2 0.9,-22.7 4.1,-0.2 8.6,-2.2 2,2.6 3.7,-2.5 1.6,0 3.2,-1.5 0,-0.5 -2.1,-1.4 -3.6,-0.4 -4.6,1.5 z" style="fill: currentcolor; fill-rule: evenodd;"></path>
                <path inkscape:connector-curvature="0" id="NE" data-name="Niger" data-id="NE" d="m 1051.3,425.6 -8.8,-2.8 -18.6,12.2 -15.8,12.5 -7.8,2.8 0.1,14.6 -3,4.3 -0.5,3.9 -4.9,1 -7.6,0.6 -2,2.2 -3.6,0.3 -0.5,3.1 0.8,2.9 3.1,4.1 0.2,3.1 6.4,1.4 -0.1,4.4 1.9,-1.9 2,0 4.3,3.7 0.3,-5.7 1.6,-2.6 0.8,-3.6 1.4,-1.4 6,-0.8 5.6,2.4 2.1,2.4 2.9,0.1 2.6,-1.5 6.8,3.3 2.8,-0.2 3.3,-2.7 3.3,0.2 1.6,-0.9 3,0.4 4.3,1.8 4.3,-3.5 1.3,0.2 3.9,7 1,-0.2 0.2,-2 1.6,-0.4 0.5,-2.9 -3.6,-0.2 0,-4.1 -2.4,-2.3 2.3,-8.4 6.9,-6 0.2,-8.3 1.8,-12.9 1.1,-2.7 -2.3,-2.2 -0.2,-2.1 -2,-1.6 -1.6,-9.9 -3.9,2.4 -3.1,-3.5 z" style="fill: currentcolor; fill-rule: evenodd;"></path>
                <path inkscape:connector-curvature="0" id="NG" data-name="Nigeria" data-id="NG" d="m 1055.8,492.7 -1,0.2 -3.9,-7 -1.3,-0.2 -4.3,3.5 -4.3,-1.8 -3,-0.4 -1.6,0.9 -3.3,-0.2 -3.3,2.7 -2.8,0.2 -6.8,-3.3 -2.6,1.5 -2.9,-0.1 -2.1,-2.4 -5.6,-2.4 -6,0.8 -1.4,1.4 -0.8,3.6 -1.6,2.6 -0.3,5.7 -0.2,2.1 1.2,3.8 -1.1,2.5 0.6,1.7 -2.7,4 -1.7,1.9 -1,4 0.1,4.1 -0.3,10.2 4.9,0 4.3,0 3.9,4.2 1.9,4.6 3,3.9 4.5,0.2 2.2,-1.4 2.1,0.3 5.8,-2.3 1.4,-4.5 2.7,-6.1 1.6,-0.1 3.3,-3.7 2.1,-0.1 3.2,2.6 3.9,-2.2 0.5,-2.6 1.2,-2.6 0.8,-3.2 3,-2.6 1.1,-4.5 1.2,-1.4 0.7,-3.3 1.5,-4 4.6,-5 0.3,-2.1 0.6,-1.1 -2.3,-2.6 z" style="fill: currentcolor; fill-rule: evenodd;"></path>
                <path inkscape:connector-curvature="0" id="RW" data-name="Rwanda" data-id="RW" d="m 1147.6,579.4 -3.3,1.9 -1.4,-0.6 -1.6,1.8 -0.2,3.8 -0.8,0.4 -0.6,3.5 3.5,0.5 1.7,-3.6 3,0.4 0,0 1.6,-0.8 0.4,-3.7 -2.3,-3.6 z" style="fill: currentcolor; fill-rule: evenodd;"></path>
                <path inkscape:connector-curvature="0" id="EH" data-name="W. Sahara" data-id="EH" d="m 929.6,396.2 -0.8,0 0,0 0.1,3.4 -3.4,0.2 -1.8,1.5 -2.5,0 -1.9,-0.9 -4.6,0.7 -1.9,5 -1.7,0.4 -2.8,8.1 -7.8,6.8 -2,8.8 -2.3,2.9 -0.7,2.3 -12.4,0.5 -0.1,0 -0.3,2.7 1.2,-2.2 21.6,0.1 -0.9,-9.2 1.4,-3.3 5.2,-0.5 0.2,-16.3 17.9,0.3 0.2,-9.7 0.1,-1.2 0,-0.4 z" style="fill: currentcolor; fill-rule: evenodd;"></path>
                <path inkscape:connector-curvature="0" id="SD" data-name="Sudan" data-id="SD" d="m 1180.8,468.5 0.4,-4.2 1.6,-2 4,-1 2.6,-3.6 -3.1,-2.4 -2.2,-1.6 -2.5,-7.6 -1.1,-6.5 1.1,-1.2 -2.1,-6.2 -21.8,0 -21.4,0 -22.1,0 0.5,12.7 -6.3,0 0,2.7 1.1,25.2 -4.8,-0.4 -2.4,4.7 -1.4,3.9 1.2,1.5 -1.8,1.9 0.7,2.7 -1.4,2.6 -0.5,2.4 2,-0.4 1.2,2.5 0.1,3.7 2.1,1.8 0,1.6 0.7,2.7 3.3,4 0,2.6 -0.8,2.6 0.3,2 2,1.8 0.5,0.3 1.7,-0.7 1.9,-1.2 1.3,-5.7 1.5,-2.9 4,-0.9 1,1.8 3,3.7 1.5,0.5 2,-1.1 4.1,0.3 0.8,1.3 5.5,0 0.2,-1.3 2.9,-1.2 0.5,-1.9 2.1,-1.3 4.8,3.7 2.8,-0.7 2.7,-4.5 3,-3.5 -0.6,-3.9 -1.4,-1.8 3.4,-0.3 0.3,-1.5 2.6,0.5 -0.5,4.7 0.8,4.6 2.9,2.5 0.7,2.2 0,3.1 0.8,0.1 0,-0.7 1.4,-6.7 2.6,-1.8 0.5,-2.6 2.3,-4.8 3.2,-3.2 2.1,-6.2 0.7,-5.5 -0.7,-2.5 1.9,-9.4 z" style="fill: currentcolor; fill-rule: evenodd;"></path>
                <path inkscape:connector-curvature="0" id="SS" data-name="S. Sudan" data-id="SS" d="m 1166,508.7 -0.7,-2.2 -2.9,-2.5 -0.8,-4.6 0.5,-4.7 -2.6,-0.5 -0.3,1.5 -3.4,0.3 1.4,1.8 0.6,3.9 -3,3.5 -2.7,4.5 -2.8,0.7 -4.8,-3.7 -2.1,1.3 -0.5,1.9 -2.9,1.2 -0.2,1.3 -5.5,0 -0.8,-1.3 -4.1,-0.3 -2,1.1 -1.5,-0.5 -3,-3.7 -1,-1.8 -4,0.9 -1.5,2.9 -1.3,5.7 -1.9,1.2 -1.7,0.7 3.8,2.5 3.1,2.6 0.1,2 3.8,3.4 2.4,2.7 1.5,3.8 4.2,2.5 0.9,2.1 3.5,5.2 2.5,0.8 1.5,-1.1 2.6,0.4 3.1,-1.3 1.4,2.7 5,4.2 0,0 2.3,-1.7 3.5,1.4 4.5,-1.5 4,0.1 3.4,-3 3.4,-3.8 3.8,-4.2 -3.5,-6.9 -2.6,-1.5 -1,-2.5 -2.9,-3.1 -3.4,-0.5 1.8,-3.6 3,-0.1 0.8,-2 -0.2,-5 -0.8,-0.1 0,-3.1 z" style="fill: currentcolor; fill-rule: evenodd;"></path>
                <path inkscape:connector-curvature="0" id="SN" data-name="Senegal" data-id="SN" d="m 908.9,479.2 -3.6,-4.4 -3.2,-4.7 -3.7,-1.7 -2.6,-1.8 -3.1,0 -2.8,1.4 -2.7,-0.5 -2,2 -1.3,3.3 -2.8,4.4 -2.5,1.2 2.7,2.3 2.2,5 6.1,-0.2 1.3,-1.5 1.8,-0.1 2.1,1.5 1.8,0.1 1.8,-1.1 1.1,1.8 -2.4,1.5 -2.4,-0.1 -2.4,-1.4 -2.1,1.5 -1,0 -1.4,0.9 -5,-0.1 0.8,4.9 3,-1.1 1.8,0.2 1.5,-0.7 10.3,0.3 2.7,0.1 4,1.5 1.3,-0.1 0.4,-0.7 3,0.5 0.8,-0.4 0.3,-2 -0.4,-2.4 -2.1,-1.8 -1.1,-3.7 -0.2,-3.9 z" style="fill: currentcolor; fill-rule: evenodd;"></path>
                <path inkscape:connector-curvature="0" id="SL" data-name="Sierra Leone" data-id="SL" d="m 919.4,518.7 -1.5,0.3 0,-2.3 -0.9,-1.7 0.2,-1.8 -1.2,-2.7 -1.5,-2.3 -4.5,0 -1.3,1.2 -1.5,0.2 -1,1.4 -0.7,1.7 -3,2.8 0.7,4.7 0.9,2.3 2.9,3.5 4.1,2.5 1.5,0.5 1.3,-2 0.3,-1.9 2.6,-3.4 2.6,-3 z" style="fill: currentcolor; fill-rule: evenodd;"></path>
                <path inkscape:connector-curvature="0" id="SZ" data-name="Swaziland" data-id="SZ" d="m 1150.5,736.6 -2.7,-1.2 -1.6,0.5 -0.7,1.8 -1.6,2.4 -0.1,2.2 3,3.5 3.3,-0.7 1.3,-2.8 -0.3,-2.8 -0.6,-2.9 z" style="fill: currentcolor; fill-rule: evenodd;"></path>
                <path inkscape:connector-curvature="0" id="TD" data-name="Chad" data-id="TD" d="m 1108.4,447.6 -22.4,-12.2 -22.3,-12.2 -5.4,3.5 1.6,9.9 2,1.6 0.2,2.1 2.3,2.2 -1.1,2.7 -1.8,12.9 -0.2,8.3 -6.9,6 -2.3,8.4 2.4,2.3 0,4.1 3.6,0.2 -0.5,2.9 2.2,4.1 0.5,4.2 -0.2,4.3 3.1,5.8 -3.1,-0.1 -1.6,0.4 -2.5,-0.6 -1.2,3 3.3,3.7 2.5,1.1 0.8,2.6 1.8,4.4 -0.9,1.7 4.7,-0.4 1,-1.7 0.9,0.2 1.4,1.4 7.1,-2.4 2.3,-2.5 2.9,-2.2 -0.6,-2.3 1.6,-0.6 5.4,0.4 5.2,-2.9 4,-7 2.8,-2.5 3.5,-1.1 0,-1.6 -2.1,-1.8 -0.1,-3.7 -1.2,-2.5 -2,0.4 0.5,-2.4 1.4,-2.6 -0.7,-2.7 1.8,-1.9 -1.2,-1.5 1.4,-3.9 2.4,-4.7 4.8,0.4 -1.1,-25.2 z" style="fill: currentcolor; fill-rule: evenodd;"></path>
                <path inkscape:connector-curvature="0" id="TG" data-name="Togo" data-id="TG" d="m 981.7,502.2 -4.9,-0.1 -0.4,1.9 2.4,3.3 -0.1,4.6 0.6,5.1 1.4,2.3 -1.2,5.7 0.4,3.2 1.5,4 1.2,2.2 4.6,-1.3 -1.4,-4.4 0.2,-14.6 -1.1,-1.3 -0.2,-3.1 -2,-2.3 -1.7,-1.9 0.7,-3.3 z" style="fill: currentcolor; fill-rule: evenodd;"></path>
                <path inkscape:connector-curvature="0" id="TN" data-name="Tunisia" data-id="TN" d="m 1038,361.4 -2,-1 -1.5,-3 -2.8,-0.1 -1.1,-3.5 3.4,-3.2 0.5,-5.6 -1.9,-1.6 -0.1,-3 2.5,-3.2 -0.4,-1.3 -4.4,2.4 0.1,-3.3 -3.7,-0.7 -5.6,2.6 -1,3.3 1,6.2 -1.1,5.3 -3.2,3.6 0.6,4.8 4.5,3.8 0,1.5 3.4,2.6 2.6,11.3 2.6,-1.4 0.4,-2.7 -0.7,-2.6 3.7,-2.5 1.5,-2 2.6,-1.8 0.1,-4.9 z" style="fill: currentcolor; fill-rule: evenodd;"></path>
                <path inkscape:connector-curvature="0" id="TZ" data-name="Tanzania" data-id="TZ" d="m 1149.6,578.6 -2,0.8 2.3,3.6 -0.4,3.7 -1.6,0.8 0,0 0.3,2.5 1.2,1.5 0,2 -1.4,1.4 -2.2,3.3 -2.1,2.3 -0.6,0.1 -0.3,2.7 1.1,0.9 -0.2,2.7 1,2.6 -1.3,2.4 4.5,4.3 0.3,3.9 2.7,6.5 0,0 0.3,0.2 2.2,1.1 3.5,1.1 3.2,1.9 5.4,1.2 1.1,1.7 0,0 0.4,-1.2 2.8,3.4 0.3,6.7 1.8,2.4 0,0.1 2.1,-0.3 6.7,1.8 1.4,-0.8 3.9,-0.1 2.1,-1.9 3.3,0.1 6.2,-2.5 4.6,-3.7 0,0 -2,-1.4 -2.2,-6.3 -1.8,-3.9 0.4,-3.1 -0.3,-1.9 1.7,-3.9 -0.2,-1.6 -3.5,-2.3 -0.3,-3.6 2.8,-7.9 -8,-6.3 -0.4,-3.7 -20.2,-13 0,0 -2.8,2.8 -1.9,2.9 2.2,2.2 -3.2,1.6 -0.7,-0.8 -3.2,0.4 -2.5,1.4 -1.6,-2.4 1.1,-4.5 0.2,-3.8 0,0 0,0 -6.2,-0.1 z" style="fill: currentcolor; fill-rule: evenodd;"></path>
                <path inkscape:connector-curvature="0" id="UG" data-name="Uganda" data-id="UG" d="m 1167.6,545.1 -3.4,3 -4,-0.1 -4.5,1.5 -3.5,-1.4 -2.3,1.7 0,0 -0.3,7.5 2.3,0.8 -1.8,2.3 -2.2,1.7 -2.1,3.3 -1.2,3 -0.3,5.1 -1.3,2.4 -0.1,4.8 1.4,0.6 3.3,-1.9 2,-0.8 6.2,0.1 0,0 -0.3,-2.5 2.6,-3.7 3.5,-0.9 2.4,-1.5 2.9,1.2 0.3,0.5 0,-0.3 1.6,-2.6 2.7,-4.2 2.1,-4.7 -2.6,-7.3 -0.7,-3.2 -2.7,-4.4 z" style="fill: currentcolor; fill-rule: evenodd;"></path>
                <path inkscape:connector-curvature="0" id="ZA" data-name="South Africa" data-id="ZA" d="m 1148.2,713.7 -2.9,-0.6 -1.9,0.8 -2.6,-1.1 -2.2,-0.1 -8,4.7 -5.2,4.7 -2,4.3 -1.7,2.4 -3,0.5 -1.2,3 -0.6,2 -3.6,1.5 -4.4,-0.3 -2.5,-1.8 -2.3,-0.8 -2.7,1.5 -1.5,3.1 -2.7,1.9 -2.8,2.8 -4,0.7 -1.1,-2.3 0.7,-3.8 -3,-6.1 -1.4,-1 -1.1,23.6 -5,3.2 -2.9,0.5 -3.3,-1.2 -2.4,-0.5 -0.8,-2.7 -2.1,-1.8 -2.7,3.2 3.5,8.2 0,0.1 2.5,5.3 3.2,6 -0.2,4.8 -1.7,1.2 1.4,4.2 -0.2,3.8 0.6,1.7 0.3,-0.9 2.1,2.9 1.8,0.1 2.1,2.3 2.4,-0.2 3.5,-2.4 4.6,-1 5.6,-2.5 2.2,0.3 3.3,-0.8 5.7,1.2 2.7,-1.2 3.2,1 0.8,-1.8 2.7,-0.3 5.8,-2.5 4.3,-2.9 4.1,-3.8 6.7,-6.5 3.4,-4.6 1.8,-3.2 2.5,-3.3 1.2,-0.9 3.9,-3.2 1.6,-2.9 1.1,-5.2 1.7,-4.7 -4.1,0 -1.3,2.8 -3.3,0.7 -3,-3.5 0.1,-2.2 1.6,-2.4 0.7,-1.8 1.6,-0.5 2.7,1.2 -0.4,-2.3 1.4,-7.1 -1.1,-4.5 -2.2,-9 z m -20.1,52.8 -2,0.6 -3.7,-4.9 3.2,-4 3.1,-2.5 2.6,-1.3 2.3,2 1.7,1.9 -1.9,3.1 -1.1,2.1 -3.1,1 -1.1,2 z" style="fill: currentcolor; fill-rule: evenodd;"></path>
                <path inkscape:connector-curvature="0" id="ZM" data-name="Zambia" data-id="ZM" d="m 1149.2,626.7 -1.9,-0.5 0.4,-1.3 -1,-0.3 -7.5,1.1 -1.6,0.7 -1.6,4.1 1.2,2.8 -1.2,7.5 -0.8,6.4 1.4,1.1 3.9,2.5 1.5,-1.2 0.3,6.9 -4.3,0 -2.1,-3.5 -2,-2.8 -4.3,-0.8 -1.2,-3.4 -3.4,2 -4.5,-0.9 -1.8,-2.8 -3.5,-0.6 -2.6,0.1 -0.3,-2 -1.9,-0.1 0.5,2 -0.7,3 0.9,3 -0.9,2.4 0.5,2.2 -11.6,-0.1 -0.8,20.3 3.6,5.2 3.5,4 4.6,-1.5 3.6,0.4 2.1,1.4 0,0.5 1,0.5 6.2,0.7 1.7,0.7 1.9,-0.1 3.2,-4.1 5.1,-5.3 2,-0.5 0.7,-2.2 3.3,-2.5 4.2,-0.9 -0.3,-4.5 17.1,-5.2 -2.9,-1.7 1.9,-5.9 1.8,-2.2 -0.9,-5.3 1.2,-5.1 1,-1.8 -1.2,-5.4 -2.6,-2.8 -3.2,-1.9 -3.5,-1.1 -2.2,-1.1 -0.3,-0.2 0,0 0.5,1.1 -1,0.4 -1.2,-1.4 z" style="fill: currentcolor; fill-rule: evenodd;"></path>
                <path inkscape:connector-curvature="0" id="ZW" data-name="Zimbabwe" data-id="ZW" d="m 1148.2,713.7 6.2,-7.2 1.6,-4.6 0.9,-0.6 0.8,-3.7 -0.8,-1.9 0.5,-4.7 1.3,-4.4 0.3,-8.1 -2.8,-2 -2.6,-0.5 -1.1,-1.6 -2.6,-1.3 -4.6,0.1 -0.3,-2.4 -4.2,0.9 -3.3,2.5 -0.7,2.2 -2,0.5 -5.1,5.3 -3.2,4.1 -1.9,0.1 -1.7,-0.7 -6.2,-0.7 1.9,5.1 1.1,1.1 1.6,3.7 6,7 2.3,0.7 -0.1,2.2 1.5,4.1 4.2,0.9 3.4,2.9 2.2,0.1 2.6,1.1 1.9,-0.8 2.9,0.6 z" style="fill: currentcolor; fill-rule: evenodd;"></path>
                <path inkscape:connector-curvature="0" id="SO" data-name="Somalia" data-id="SO" d="m 1223.4,505.7 -2.6,-2.7 -1.2,-2.6 -1.8,-1.2 -2,3.4 -1.1,2.3 2.2,3.5 2.1,3.1 2.2,2.2 18.5,7.6 4.8,-0.1 -15.4,19.1 -7.4,0.3 -4.9,4.5 -3.6,0.1 -1.5,2 -4.8,7.2 0.2,23.2 3.3,5.3 1.3,-1.5 1.3,-3.4 6.1,-7.7 5.3,-4.8 8.3,-6.4 5.6,-5.1 6.4,-8.7 4.7,-7.1 4.6,-9.3 3.2,-8.2 2.5,-7.1 1.3,-6.8 1.1,-2.3 -0.2,-3.4 0.4,-3.7 -0.2,-1.7 -2.1,0 -2.6,2.2 -2.9,0.6 -2.5,0.9 -1.8,0.2 0,0 -3.2,0.2 -1.9,1.1 -2.8,0.5 -4.8,1.9 -6.1,0.8 -5.2,1.6 -2.8,0 z" style="fill: currentcolor; fill-rule: evenodd;"></path>
                <path inkscape:connector-curvature="0" id="KM" data-name="Comoros" data-id="KM" d="m 1221.1,650.5 -0.4,-0.4 -0.4,0 0,0.2 0.1,0.4 1.1,0.2 -0.4,-0.4 z m 3.9,-1.5 -0.1,0 -0.2,0.1 -0.1,0.2 -0.1,0.3 -0.3,0 -0.2,0 -0.4,0 0.8,0.5 0.5,0.5 0.2,0.2 0.1,-0.2 0.1,-0.7 -0.3,-0.9 z m -5.6,-1.1 0.2,-0.3 -0.2,-0.7 -0.4,-0.8 0.1,-1.4 -0.2,-0.2 -0.3,0 -0.1,0.1 -0.1,0.3 -0.3,2 0.4,0.6 0.3,0.1 0.5,0.4 0.1,-0.1 z" style="fill: currentcolor; fill-rule: evenodd;"></path>
                <path inkscape:connector-curvature="0" id="CV" data-name="Cape Verde" data-id="CV" d="m 841.4,477.6 0.1,-0.4 -0.2,-0.6 -0.3,-0.1 -0.6,0.4 -0.1,0.3 0.1,0.3 0.3,0.3 0.3,0.1 0.4,-0.3 z m 6.3,-1.7 0.4,-0.2 0,-0.7 -0.1,-0.3 -0.4,0 -0.2,0.4 0,0.1 0,0.4 0.2,0.3 0.1,0 z m -1.4,0.8 -0.5,-0.9 -0.3,-0.1 -0.6,-0.7 0,-0.3 -0.3,-0.1 0,0.2 0,0.4 -0.2,0.5 0,0.5 0.4,0.8 0.4,0.2 0.7,0.1 0.4,-0.6 z m 3.1,-7.8 0,0.5 -0.3,0.7 0.5,0.3 0.3,0.1 0.6,-0.4 0.2,-0.5 -0.1,-0.3 -0.3,-0.3 -0.3,-0.1 -0.1,0.1 -0.5,-0.1 z m -6.4,-2.5 -1,-0.1 -0.6,-0.2 -0.1,0 0,0.3 0.4,0.8 0.2,-0.5 0.2,-0.1 0.8,0.2 0.4,-0.1 -0.1,-0.1 -0.2,-0.2 z m 6.7,-0.2 -0.1,-0.5 0,-0.7 -0.2,0 -0.3,0.2 0.1,0.7 0.1,0.1 0.2,0.5 0.2,-0.3 z m -11.1,-1 0,-0.2 -0.3,-0.5 -0.3,0.1 -0.4,0.2 -0.1,0.3 0.4,0.2 0.2,0 0.5,-0.1 z m -1.5,-0.9 0.8,-0.6 0.2,-0.3 -0.2,-0.5 -0.5,-0.1 -1.2,0.6 -0.1,0.2 0.1,0.3 0.1,0.5 0.2,0.1 0.6,-0.2 z" style="fill: currentcolor; fill-rule: evenodd;"></path>
                <path inkscape:connector-curvature="0" id="MU" data-name="Mauritius" data-id="MU" d="m 1294.7,702.5 0.3,-0.3 0.2,-0.4 0.3,-0.3 0.1,-0.7 -0.2,-0.8 -0.4,-0.7 -0.5,0.1 -0.3,0.4 -0.2,0.5 -0.5,0.3 -0.1,0.3 -0.2,0.7 -0.1,0.4 -0.2,0.1 0,0.2 0.3,0.3 0.8,0.1 0.7,-0.2 z" style="fill: currentcolor; fill-rule: evenodd;"></path>
                <path inkscape:connector-curvature="0" id="ST" data-name="São Tomé and Principe" data-id="ST" d="m 1014.1,571.4 0.5,-0.8 0,-0.5 -0.3,-0.5 -0.4,0 -0.5,0.4 -0.3,0.4 0,0.3 0.1,0.7 0.1,0.3 0.3,0.2 0.5,-0.5 z m 4.3,-9.2 0.2,-0.4 0,-0.2 -0.1,-0.1 -0.1,-0.1 -0.2,0.1 -0.3,0.5 0.1,0.2 0.2,0.2 0.2,-0.2 z" style="fill: currentcolor; fill-rule: evenodd;"></path>
                <path inkscape:connector-curvature="0" id="SC" data-name="Seychelles" data-id="SC" d="m 1288.5,602 -0.5,-0.8 -0.4,0.3 0.2,0.3 0.3,0.2 0.1,0.4 0.3,0.2 0,-0.6 z" style="fill: currentcolor; fill-rule: evenodd;"></path>
                <path inkscape:connector-curvature="0" id="RE" data-name="Reunion" data-id="RE" d="m 1284,707.9 0.2,-0.4 0.1,-0.8 -0.4,-0.8 -0.4,-0.7 -0.4,-0.2 -0.8,-0.1 -0.7,0.3 -0.4,0.6 -0.2,0.3 0.4,1.1 0.2,0.3 1.1,0.6 0.5,0 0.8,-0.2 z" style="fill: currentcolor; fill-rule: evenodd;"></path>
                <path inkscape:connector-curvature="0" id="YT" data-name="Mayotte" data-id="YT" d="m 1228.7,654.7 0,-0.3 0.2,-0.5 0,-0.1 0.1,-0.5 -0.3,-0.3 -0.2,0 -0.2,-0.3 -0.3,0.3 0.3,0.5 -0.1,0.3 -0.1,0.4 0.1,0.4 0.2,0.2 0.3,-0.1 z" style="fill: currentcolor; fill-rule: evenodd;"></path>
              </svg>